{"asset":{"version":"2.0","generator":"babylon.js glTF exporter for Autodesk Maya 2018.5 v20220319.2"},"scene":0,"scenes":[{"nodes":[0]}],"nodes":[{"children":[1,2,3,4],"name":"group1"},{"mesh":0,"translation":[0.0213410445,0.0190107,0.000580355758],"rotation":[-0.927506745,0.373806477,-2.28890454E-17,5.679341E-17],"scale":[1.88202226,1.88202226,-1.88202226],"name":"pPlane13"},{"mesh":1,"translation":[0.00675342651,0.0246219076,0.0006072453],"rotation":[-0.9859806,0.166860089,-1.02172332E-17,6.03739E-17],"scale":[1.70654249,1.70654249,-1.70654249],"name":"pPlane11"},{"mesh":2,"translation":[-1.71347747E-05,-3.425683E-05,-0.00195689267],"rotation":[0.707106769,0.0,0.0,0.707106769],"scale":[0.877777755,0.4381097,0.703517139],"name":"pCube1"},{"mesh":3,"translation":[0.0285904109,0.006044821,0.000774945947],"rotation":[-0.8102465,0.586089253,-3.58876147E-17,4.961329E-17],"scale":[1.70654249,1.70654249,-1.70654249],"name":"pPlane12"}],"meshes":[{"primitives":[{"attributes":{"POSITION":1,"TANGENT":2,"NORMAL":3,"TEXCOORD_0":4},"indices":0,"material":0},{"attributes":{"POSITION":6,"TANGENT":7,"NORMAL":8,"TEXCOORD_0":9},"indices":5,"material":1},{"attributes":{"POSITION":11,"TANGENT":12,"NORMAL":13,"TEXCOORD_0":14},"indices":10,"material":2}],"name":"pPlane13"},{"primitives":[{"attributes":{"POSITION":16,"TANGENT":17,"NORMAL":18,"TEXCOORD_0":19},"indices":15,"material":0},{"attributes":{"POSITION":21,"TANGENT":22,"NORMAL":23,"TEXCOORD_0":24},"indices":20,"material":1},{"attributes":{"POSITION":26,"TANGENT":27,"NORMAL":28,"TEXCOORD_0":29},"indices":25,"material":2}],"name":"pPlane11"},{"primitives":[{"attributes":{"POSITION":31,"TANGENT":32,"NORMAL":33,"TEXCOORD_0":34},"indices":30,"material":3},{"attributes":{"POSITION":36,"TANGENT":37,"NORMAL":38,"TEXCOORD_0":39},"indices":35,"material":4},{"attributes":{"POSITION":41,"TANGENT":42,"NORMAL":43,"TEXCOORD_0":44},"indices":40,"material":5}],"name":"pCube1"},{"primitives":[{"attributes":{"POSITION":46,"TANGENT":47,"NORMAL":48,"TEXCOORD_0":49},"indices":45,"material":0},{"attributes":{"POSITION":51,"TANGENT":52,"NORMAL":53,"TEXCOORD_0":54},"indices":50,"material":1},{"attributes":{"POSITION":56,"TANGENT":57,"NORMAL":58,"TEXCOORD_0":59},"indices":55,"material":2}],"name":"pPlane12"}],"accessors":[{"bufferView":0,"componentType":5123,"count":25392,"type":"SCALAR","name":"accessorIndices"},{"bufferView":1,"componentType":5126,"count":4576,"max":[-0.008892286,0.008239934,0.0007962093],"min":[-0.0186942983,-0.0021367562,-0.0007962095],"type":"VEC3","name":"accessorPositions"},{"bufferView":2,"componentType":5126,"count":4576,"type":"VEC4","name":"accessorTangents"},{"bufferView":1,"byteOffset":54912,"componentType":5126,"count":4576,"type":"VEC3","name":"accessorNormals"},{"bufferView":3,"componentType":5126,"count":4576,"type":"VEC2","name":"accessorUVs"},{"bufferView":0,"byteOffset":50784,"componentType":5123,"count":3456,"type":"SCALAR","name":"accessorIndices"},{"bufferView":1,"byteOffset":109824,"componentType":5126,"count":578,"max":[0.0173252318,0.0340397619,0.00112552987],"min":[-0.0138925407,0.00288473954,-0.000315311627],"type":"VEC3","name":"accessorPositions"},{"bufferView":2,"byteOffset":73216,"componentType":5126,"count":578,"type":"VEC4","name":"accessorTangents"},{"bufferView":1,"byteOffset":116760,"componentType":5126,"count":578,"type":"VEC3","name":"accessorNormals"},{"bufferView":3,"byteOffset":36608,"componentType":5126,"count":578,"type":"VEC2","name":"accessorUVs"},{"bufferView":0,"byteOffset":57696,"componentType":5123,"count":8880,"type":"SCALAR","name":"accessorIndices"},{"bufferView":1,"byteOffset":123696,"componentType":5126,"count":1729,"max":[-0.0131565928,0.00353632239,0.000448785577],"min":[-0.0161808264,0.0004655659,-0.0004487854],"type":"VEC3","name":"accessorPositions"},{"bufferView":2,"byteOffset":82464,"componentType":5126,"count":1729,"type":"VEC4","name":"accessorTangents"},{"bufferView":1,"byteOffset":144444,"componentType":5126,"count":1729,"type":"VEC3","name":"accessorNormals"},{"bufferView":3,"byteOffset":41232,"componentType":5126,"count":1729,"type":"VEC2","name":"accessorUVs"},{"bufferView":0,"byteOffset":75456,"componentType":5123,"count":25392,"type":"SCALAR","name":"accessorIndices"},{"bufferView":1,"byteOffset":165192,"componentType":5126,"count":4576,"max":[-0.008892286,0.008239934,0.0007962093],"min":[-0.0186942983,-0.0021367562,-0.0007962095],"type":"VEC3","name":"accessorPositions"},{"bufferView":2,"byteOffset":110128,"componentType":5126,"count":4576,"type":"VEC4","name":"accessorTangents"},{"bufferView":1,"byteOffset":220104,"componentType":5126,"count":4576,"type":"VEC3","name":"accessorNormals"},{"bufferView":3,"byteOffset":55064,"componentType":5126,"count":4576,"type":"VEC2","name":"accessorUVs"},{"bufferView":0,"byteOffset":126240,"componentType":5123,"count":3456,"type":"SCALAR","name":"accessorIndices"},{"bufferView":1,"byteOffset":275016,"componentType":5126,"count":578,"max":[0.0173252318,0.0340397619,0.00112552987],"min":[-0.0138925407,0.00288473954,-0.000315311627],"type":"VEC3","name":"accessorPositions"},{"bufferView":2,"byteOffset":183344,"componentType":5126,"count":578,"type":"VEC4","name":"accessorTangents"},{"bufferView":1,"byteOffset":281952,"componentType":5126,"count":578,"type":"VEC3","name":"accessorNormals"},{"bufferView":3,"byteOffset":91672,"componentType":5126,"count":578,"type":"VEC2","name":"accessorUVs"},{"bufferView":0,"byteOffset":133152,"componentType":5123,"count":8880,"type":"SCALAR","name":"accessorIndices"},{"bufferView":1,"byteOffset":288888,"componentType":5126,"count":1729,"max":[-0.0131565928,0.00353632239,0.000448785577],"min":[-0.0161808264,0.0004655659,-0.0004487854],"type":"VEC3","name":"accessorPositions"},{"bufferView":2,"byteOffset":192592,"componentType":5126,"count":1729,"type":"VEC4","name":"accessorTangents"},{"bufferView":1,"byteOffset":309636,"componentType":5126,"count":1729,"type":"VEC3","name":"accessorNormals"},{"bufferView":3,"byteOffset":96296,"componentType":5126,"count":1729,"type":"VEC2","name":"accessorUVs"},{"bufferView":0,"byteOffset":150912,"componentType":5123,"count":24,"type":"SCALAR","name":"accessorIndices"},{"bufferView":1,"byteOffset":330384,"componentType":5126,"count":16,"max":[0.032621827,0.00238347286,0.070302166],"min":[-0.032621827,-0.00238347286,-0.070302166],"type":"VEC3","name":"accessorPositions"},{"bufferView":2,"byteOffset":220256,"componentType":5126,"count":16,"type":"VEC4","name":"accessorTangents"},{"bufferView":1,"byteOffset":330576,"componentType":5126,"count":16,"type":"VEC3","name":"accessorNormals"},{"bufferView":3,"byteOffset":110128,"componentType":5126,"count":16,"type":"VEC2","name":"accessorUVs"},{"bufferView":0,"byteOffset":150960,"componentType":5123,"count":6,"type":"SCALAR","name":"accessorIndices"},{"bufferView":1,"byteOffset":330768,"componentType":5126,"count":4,"max":[0.032621827,0.00238347286,0.070302166],"min":[-0.032621827,0.00238347286,-0.070302166],"type":"VEC3","name":"accessorPositions"},{"bufferView":2,"byteOffset":220512,"componentType":5126,"count":4,"type":"VEC4","name":"accessorTangents"},{"bufferView":1,"byteOffset":330816,"componentType":5126,"count":4,"type":"VEC3","name":"accessorNormals"},{"bufferView":3,"byteOffset":110256,"componentType":5126,"count":4,"type":"VEC2","name":"accessorUVs"},{"bufferView":0,"byteOffset":150972,"componentType":5123,"count":6,"type":"SCALAR","name":"accessorIndices"},{"bufferView":1,"byteOffset":330864,"componentType":5126,"count":4,"max":[0.032621827,-0.00238347286,0.070302166],"min":[-0.032621827,-0.00238347286,-0.070302166],"type":"VEC3","name":"accessorPositions"},{"bufferView":2,"byteOffset":220576,"componentType":5126,"count":4,"type":"VEC4","name":"accessorTangents"},{"bufferView":1,"byteOffset":330912,"componentType":5126,"count":4,"type":"VEC3","name":"accessorNormals"},{"bufferView":3,"byteOffset":110288,"componentType":5126,"count":4,"type":"VEC2","name":"accessorUVs"},{"bufferView":0,"byteOffset":150984,"componentType":5123,"count":25392,"type":"SCALAR","name":"accessorIndices"},{"bufferView":1,"byteOffset":330960,"componentType":5126,"count":4576,"max":[-0.008892286,0.008239934,0.0007962093],"min":[-0.0186942983,-0.0021367562,-0.0007962095],"type":"VEC3","name":"accessorPositions"},{"bufferView":2,"byteOffset":220640,"componentType":5126,"count":4576,"type":"VEC4","name":"accessorTangents"},{"bufferView":1,"byteOffset":385872,"componentType":5126,"count":4576,"type":"VEC3","name":"accessorNormals"},{"bufferView":3,"byteOffset":110320,"componentType":5126,"count":4576,"type":"VEC2","name":"accessorUVs"},{"bufferView":0,"byteOffset":201768,"componentType":5123,"count":3456,"type":"SCALAR","name":"accessorIndices"},{"bufferView":1,"byteOffset":440784,"componentType":5126,"count":578,"max":[0.0173252318,0.0340397619,0.00112552987],"min":[-0.0138925407,0.00288473954,-0.000315311627],"type":"VEC3","name":"accessorPositions"},{"bufferView":2,"byteOffset":293856,"componentType":5126,"count":578,"type":"VEC4","name":"accessorTangents"},{"bufferView":1,"byteOffset":447720,"componentType":5126,"count":578,"type":"VEC3","name":"accessorNormals"},{"bufferView":3,"byteOffset":146928,"componentType":5126,"count":578,"type":"VEC2","name":"accessorUVs"},{"bufferView":0,"byteOffset":208680,"componentType":5123,"count":8880,"type":"SCALAR","name":"accessorIndices"},{"bufferView":1,"byteOffset":454656,"componentType":5126,"count":1729,"max":[-0.0131565928,0.00353632239,0.000448785577],"min":[-0.0161808264,0.0004655659,-0.0004487854],"type":"VEC3","name":"accessorPositions"},{"bufferView":2,"byteOffset":303104,"componentType":5126,"count":1729,"type":"VEC4","name":"accessorTangents"},{"bufferView":1,"byteOffset":475404,"componentType":5126,"count":1729,"type":"VEC3","name":"accessorNormals"},{"bufferView":3,"byteOffset":151552,"componentType":5126,"count":1729,"type":"VEC2","name":"accessorUVs"}],"bufferViews":[{"buffer":0,"byteLength":226440,"name":"bufferViewScalar"},{"buffer":0,"byteOffset":226440,"byteLength":496152,"byteStride":12,"name":"bufferViewFloatVec3"},{"buffer":0,"byteOffset":722592,"byteLength":330768,"byteStride":16,"name":"bufferViewFloatVec4"},{"buffer":0,"byteOffset":1053360,"byteLength":165384,"byteStride":8,"name":"bufferViewFloatVec2"}],"buffers":[{"uri":"Jian03.bin","byteLength":1218744}],"materials":[{"pbrMetallicRoughness":{"baseColorFactor":[1.0,0.6206834,0.0,1.0],"metallicFactor":0.0,"roughnessFactor":0.450053632},"name":"lambert5"},{"pbrMetallicRoughness":{"baseColorFactor":[0.9520548,0.9520548,0.9520548,1.0],"metallicFactor":0.0,"roughnessFactor":0.450053632},"name":"lambert6"},{"pbrMetallicRoughness":{"baseColorFactor":[0.102739729,0.102739729,0.102739729,1.0],"metallicFactor":0.0,"roughnessFactor":0.450053632},"name":"lambert7"},{"pbrMetallicRoughness":{"baseColorFactor":[0.08791209,0.08791209,0.08791209,1.0],"metallicFactor":0.0,"roughnessFactor":0.450053632},"name":"lambert4"},{"pbrMetallicRoughness":{"baseColorTexture":{"index":0},"metallicFactor":0.0,"roughnessFactor":0.450053632},"name":"lambert2"},{"pbrMetallicRoughness":{"baseColorTexture":{"index":1},"metallicFactor":0.0,"roughnessFactor":0.450053632},"name":"lambert3"}],"textures":[{"sampler":0,"source":0,"name":"a02.jpg"},{"sampler":0,"source":1,"name":"b.png"}],"images":[{"uri":"a02.jpg"},{"uri":"b.png"}],"samplers":[{"magFilter":9729,"minFilter":9987}]}