{"asset":{"version":"2.0","generator":"babylon.js glTF exporter for Autodesk Maya 2018.5 v20220319.2"},"scene":0,"scenes":[{"nodes":[0]}],"nodes":[{"children":[1,2,3,4,5,6,7,8,9,10,11,12,13],"name":"group2"},{"mesh":0,"translation":[0.04451716,-0.000177485825,7.532646E-07],"scale":[0.9990894,0.9990894,0.9990894],"name":"pTorus13"},{"mesh":1,"translation":[0.00723371468,0.008353203,0.000496785156],"scale":[0.259032041,0.259032041,0.259032041],"name":"pSphere1"},{"mesh":2,"translation":[-0.0004024458,0.0163856689,0.0005324411],"scale":[2.06235838,2.06235838,2.06235838],"name":"pCylinder1"},{"mesh":3,"translation":[0.000467719248,-0.000177485825,7.532646E-07],"scale":[0.9990894,0.9990894,0.9990894],"name":"pTorus14"},{"mesh":4,"translation":[0.0425246321,-0.0747071356,-0.0008122557],"scale":[1.98191643,1.98191643,1.98191643],"name":"polySurface17"},{"mesh":5,"translation":[-0.007873558,0.007904919,0.000496785156],"scale":[0.259032041,0.259032041,0.259032041],"name":"pSphere2"},{"mesh":6,"translation":[-0.000333372271,0.008168156,0.00048670618],"rotation":[0.0,0.0,0.7321072,0.6811894],"scale":[0.0757348,0.0757348,0.0757348],"name":"pCylinder2"},{"mesh":7,"translation":[-1.71347747E-05,-3.425683E-05,-0.00195689267],"rotation":[0.707106769,0.0,0.0,0.707106769],"scale":[0.877777755,0.4381097,0.703517139],"name":"pCube1"},{"mesh":8,"translation":[0.06911328,-0.1374036,-0.00209708116],"rotation":[0.0,0.0,-0.0243128967,0.9997044],"scale":[3.57177186,3.57177186,3.57177186],"name":"polySurface11"},{"mesh":9,"translation":[0.0294025633,-0.06256356,-0.0008122557],"scale":[1.98191643,1.98191643,1.98191643],"name":"pTorus17"},{"mesh":10,"translation":[0.04451716,-0.0688940659,7.532646E-07],"scale":[0.9990894,0.9990894,0.9990894],"name":"pTorus15"},{"mesh":11,"translation":[0.000467719248,-0.07100689,7.532646E-07],"scale":[0.9990894,0.9990894,0.9990894],"name":"pTorus16"},{"mesh":12,"translation":[0.0555647537,-0.06256356,-0.0008122557],"scale":[1.98191643,1.98191643,1.98191643],"name":"pTorus11"}],"meshes":[{"primitives":[{"attributes":{"POSITION":1,"TANGENT":2,"NORMAL":3,"TEXCOORD_0":4},"indices":0,"material":0}],"name":"pTorus13"},{"primitives":[{"attributes":{"POSITION":6,"TANGENT":7,"NORMAL":8,"TEXCOORD_0":9},"indices":5,"material":1}],"name":"pSphere1"},{"primitives":[{"attributes":{"POSITION":11,"TANGENT":12,"NORMAL":13,"TEXCOORD_0":14},"indices":10,"material":1}],"name":"pCylinder1"},{"primitives":[{"attributes":{"POSITION":16,"TANGENT":17,"NORMAL":18,"TEXCOORD_0":19},"indices":15,"material":0}],"name":"pTorus14"},{"primitives":[{"attributes":{"POSITION":21,"TANGENT":22,"NORMAL":23,"TEXCOORD_0":24},"indices":20,"material":1}],"name":"polySurface17"},{"primitives":[{"attributes":{"POSITION":26,"TANGENT":27,"NORMAL":28,"TEXCOORD_0":29},"indices":25,"material":1}],"name":"pSphere2"},{"primitives":[{"attributes":{"POSITION":31,"TANGENT":32,"NORMAL":33,"TEXCOORD_0":34},"indices":30,"material":1}],"name":"pCylinder2"},{"primitives":[{"attributes":{"POSITION":36,"TANGENT":37,"NORMAL":38,"TEXCOORD_0":39},"indices":35,"material":2},{"attributes":{"POSITION":41,"TANGENT":42,"NORMAL":43,"TEXCOORD_0":44},"indices":40,"material":3},{"attributes":{"POSITION":46,"TANGENT":47,"NORMAL":48,"TEXCOORD_0":49},"indices":45,"material":4}],"name":"pCube1"},{"primitives":[{"attributes":{"POSITION":51,"TANGENT":52,"NORMAL":53,"TEXCOORD_0":54},"indices":50,"material":1}],"name":"polySurface11"},{"primitives":[{"attributes":{"POSITION":56,"TANGENT":57,"NORMAL":58,"TEXCOORD_0":59},"indices":55,"material":1}],"name":"pTorus17"},{"primitives":[{"attributes":{"POSITION":61,"TANGENT":62,"NORMAL":63,"TEXCOORD_0":64},"indices":60,"material":0}],"name":"pTorus15"},{"primitives":[{"attributes":{"POSITION":66,"TANGENT":67,"NORMAL":68,"TEXCOORD_0":69},"indices":65,"material":0}],"name":"pTorus16"},{"primitives":[{"attributes":{"POSITION":71,"TANGENT":72,"NORMAL":73,"TEXCOORD_0":74},"indices":70,"material":1}],"name":"pTorus11"}],"accessors":[{"bufferView":0,"componentType":5123,"count":51840,"type":"SCALAR","name":"accessorIndices"},{"bufferView":1,"componentType":5126,"count":9100,"max":[-0.0186994337,0.0454603657,0.00125232548],"min":[-0.02455368,0.0225088429,0.0003330093],"type":"VEC3","name":"accessorPositions"},{"bufferView":2,"componentType":5126,"count":9100,"type":"VEC4","name":"accessorTangents"},{"bufferView":1,"byteOffset":109200,"componentType":5126,"count":9100,"type":"VEC3","name":"accessorNormals"},{"bufferView":3,"componentType":5126,"count":9100,"type":"VEC2","name":"accessorUVs"},{"bufferView":0,"byteOffset":103680,"componentType":5123,"count":9360,"type":"SCALAR","name":"accessorIndices"},{"bufferView":1,"byteOffset":218400,"componentType":5126,"count":1677,"max":[0.00476059737,0.004829487,0.004760598],"min":[-0.0047605983,-0.004829487,-0.004760599],"type":"VEC3","name":"accessorPositions"},{"bufferView":2,"byteOffset":145600,"componentType":5126,"count":1677,"type":"VEC4","name":"accessorTangents"},{"bufferView":1,"byteOffset":238524,"componentType":5126,"count":1677,"type":"VEC3","name":"accessorNormals"},{"bufferView":3,"byteOffset":72800,"componentType":5126,"count":1677,"type":"VEC2","name":"accessorUVs"},{"bufferView":0,"byteOffset":122400,"componentType":5123,"count":10560,"type":"SCALAR","name":"accessorIndices"},{"bufferView":1,"byteOffset":258648,"componentType":5126,"count":1951,"max":[0.00130739657,0.0036683958,0.000332090131],"min":[-0.00130739668,-0.00383949815,-0.0003320902],"type":"VEC3","name":"accessorPositions"},{"bufferView":2,"byteOffset":172432,"componentType":5126,"count":1951,"type":"VEC4","name":"accessorTangents"},{"bufferView":1,"byteOffset":282060,"componentType":5126,"count":1951,"type":"VEC3","name":"accessorNormals"},{"bufferView":3,"byteOffset":86216,"componentType":5126,"count":1951,"type":"VEC2","name":"accessorUVs"},{"bufferView":0,"byteOffset":143520,"componentType":5123,"count":51840,"type":"SCALAR","name":"accessorIndices"},{"bufferView":1,"byteOffset":305472,"componentType":5126,"count":9100,"max":[-0.0186994337,0.0454603657,0.00125232548],"min":[-0.02455368,0.0225088429,0.0003330093],"type":"VEC3","name":"accessorPositions"},{"bufferView":2,"byteOffset":203648,"componentType":5126,"count":9100,"type":"VEC4","name":"accessorTangents"},{"bufferView":1,"byteOffset":414672,"componentType":5126,"count":9100,"type":"VEC3","name":"accessorNormals"},{"bufferView":3,"byteOffset":101824,"componentType":5126,"count":9100,"type":"VEC2","name":"accessorUVs"},{"bufferView":0,"byteOffset":247200,"componentType":5123,"count":12096,"type":"SCALAR","name":"accessorIndices"},{"bufferView":1,"byteOffset":523872,"componentType":5126,"count":2018,"max":[-0.0200005285,0.04253967,0.000882724649],"min":[-0.0233833063,0.0225088429,0.000660243561],"type":"VEC3","name":"accessorPositions"},{"bufferView":2,"byteOffset":349248,"componentType":5126,"count":2018,"type":"VEC4","name":"accessorTangents"},{"bufferView":1,"byteOffset":548088,"componentType":5126,"count":2018,"type":"VEC3","name":"accessorNormals"},{"bufferView":3,"byteOffset":174624,"componentType":5126,"count":2018,"type":"VEC2","name":"accessorUVs"},{"bufferView":0,"byteOffset":271392,"componentType":5123,"count":9360,"type":"SCALAR","name":"accessorIndices"},{"bufferView":1,"byteOffset":572304,"componentType":5126,"count":1677,"max":[0.00476059737,0.004829487,0.004760598],"min":[-0.0047605983,-0.004829487,-0.004760599],"type":"VEC3","name":"accessorPositions"},{"bufferView":2,"byteOffset":381536,"componentType":5126,"count":1677,"type":"VEC4","name":"accessorTangents"},{"bufferView":1,"byteOffset":592428,"componentType":5126,"count":1677,"type":"VEC3","name":"accessorNormals"},{"bufferView":3,"byteOffset":190768,"componentType":5126,"count":1677,"type":"VEC2","name":"accessorUVs"},{"bufferView":0,"byteOffset":290112,"componentType":5123,"count":3120,"type":"SCALAR","name":"accessorIndices"},{"bufferView":1,"byteOffset":612552,"componentType":5126,"count":621,"max":[0.0113666011,0.258290917,0.008568492],"min":[-0.0119497972,-0.2396115,-0.008568496],"type":"VEC3","name":"accessorPositions"},{"bufferView":2,"byteOffset":408368,"componentType":5126,"count":621,"type":"VEC4","name":"accessorTangents"},{"bufferView":1,"byteOffset":620004,"componentType":5126,"count":621,"type":"VEC3","name":"accessorNormals"},{"bufferView":3,"byteOffset":204184,"componentType":5126,"count":621,"type":"VEC2","name":"accessorUVs"},{"bufferView":0,"byteOffset":296352,"componentType":5123,"count":24,"type":"SCALAR","name":"accessorIndices"},{"bufferView":1,"byteOffset":627456,"componentType":5126,"count":16,"max":[0.032621827,0.00238347286,0.070302166],"min":[-0.032621827,-0.00238347286,-0.070302166],"type":"VEC3","name":"accessorPositions"},{"bufferView":2,"byteOffset":418304,"componentType":5126,"count":16,"type":"VEC4","name":"accessorTangents"},{"bufferView":1,"byteOffset":627648,"componentType":5126,"count":16,"type":"VEC3","name":"accessorNormals"},{"bufferView":3,"byteOffset":209152,"componentType":5126,"count":16,"type":"VEC2","name":"accessorUVs"},{"bufferView":0,"byteOffset":296400,"componentType":5123,"count":6,"type":"SCALAR","name":"accessorIndices"},{"bufferView":1,"byteOffset":627840,"componentType":5126,"count":4,"max":[0.032621827,0.00238347286,0.070302166],"min":[-0.032621827,0.00238347286,-0.070302166],"type":"VEC3","name":"accessorPositions"},{"bufferView":2,"byteOffset":418560,"componentType":5126,"count":4,"type":"VEC4","name":"accessorTangents"},{"bufferView":1,"byteOffset":627888,"componentType":5126,"count":4,"type":"VEC3","name":"accessorNormals"},{"bufferView":3,"byteOffset":209280,"componentType":5126,"count":4,"type":"VEC2","name":"accessorUVs"},{"bufferView":0,"byteOffset":296412,"componentType":5123,"count":6,"type":"SCALAR","name":"accessorIndices"},{"bufferView":1,"byteOffset":627936,"componentType":5126,"count":4,"max":[0.032621827,-0.00238347286,0.070302166],"min":[-0.032621827,-0.00238347286,-0.070302166],"type":"VEC3","name":"accessorPositions"},{"bufferView":2,"byteOffset":418624,"componentType":5126,"count":4,"type":"VEC4","name":"accessorTangents"},{"bufferView":1,"byteOffset":627984,"componentType":5126,"count":4,"type":"VEC3","name":"accessorNormals"},{"bufferView":3,"byteOffset":209312,"componentType":5126,"count":4,"type":"VEC2","name":"accessorUVs"},{"bufferView":0,"byteOffset":296424,"componentType":5123,"count":5184,"type":"SCALAR","name":"accessorIndices"},{"bufferView":1,"byteOffset":628032,"componentType":5126,"count":866,"max":[-0.02087704,0.0454603657,0.0009372582],"min":[-0.0223929379,0.04371281,0.0006411489],"type":"VEC3","name":"accessorPositions"},{"bufferView":2,"byteOffset":418688,"componentType":5126,"count":866,"type":"VEC4","name":"accessorTangents"},{"bufferView":1,"byteOffset":638424,"componentType":5126,"count":866,"type":"VEC3","name":"accessorNormals"},{"bufferView":3,"byteOffset":209344,"componentType":5126,"count":866,"type":"VEC2","name":"accessorUVs"},{"bufferView":0,"byteOffset":306792,"componentType":5123,"count":51840,"type":"SCALAR","name":"accessorIndices"},{"bufferView":1,"byteOffset":648816,"componentType":5126,"count":9100,"max":[-0.0186994337,0.0454603657,0.00125232548],"min":[-0.02455368,0.0225088429,0.0003330093],"type":"VEC3","name":"accessorPositions"},{"bufferView":2,"byteOffset":432544,"componentType":5126,"count":9100,"type":"VEC4","name":"accessorTangents"},{"bufferView":1,"byteOffset":758016,"componentType":5126,"count":9100,"type":"VEC3","name":"accessorNormals"},{"bufferView":3,"byteOffset":216272,"componentType":5126,"count":9100,"type":"VEC2","name":"accessorUVs"},{"bufferView":0,"byteOffset":410472,"componentType":5123,"count":51840,"type":"SCALAR","name":"accessorIndices"},{"bufferView":1,"byteOffset":867216,"componentType":5126,"count":9100,"max":[-0.0186994337,0.0454603657,0.00125232548],"min":[-0.02455368,0.0225088429,0.0003330093],"type":"VEC3","name":"accessorPositions"},{"bufferView":2,"byteOffset":578144,"componentType":5126,"count":9100,"type":"VEC4","name":"accessorTangents"},{"bufferView":1,"byteOffset":976416,"componentType":5126,"count":9100,"type":"VEC3","name":"accessorNormals"},{"bufferView":3,"byteOffset":289072,"componentType":5126,"count":9100,"type":"VEC2","name":"accessorUVs"},{"bufferView":0,"byteOffset":514152,"componentType":5123,"count":51840,"type":"SCALAR","name":"accessorIndices"},{"bufferView":1,"byteOffset":1085616,"componentType":5126,"count":9100,"max":[-0.0186994337,0.0454603657,0.00125232548],"min":[-0.02455368,0.0225088429,0.0003330093],"type":"VEC3","name":"accessorPositions"},{"bufferView":2,"byteOffset":723744,"componentType":5126,"count":9100,"type":"VEC4","name":"accessorTangents"},{"bufferView":1,"byteOffset":1194816,"componentType":5126,"count":9100,"type":"VEC3","name":"accessorNormals"},{"bufferView":3,"byteOffset":361872,"componentType":5126,"count":9100,"type":"VEC2","name":"accessorUVs"},{"bufferView":0,"byteOffset":617832,"componentType":5123,"count":51840,"type":"SCALAR","name":"accessorIndices"},{"bufferView":1,"byteOffset":1304016,"componentType":5126,"count":9100,"max":[-0.0186994337,0.0454603657,0.00125232548],"min":[-0.02455368,0.0225088429,0.0003330093],"type":"VEC3","name":"accessorPositions"},{"bufferView":2,"byteOffset":869344,"componentType":5126,"count":9100,"type":"VEC4","name":"accessorTangents"},{"bufferView":1,"byteOffset":1413216,"componentType":5126,"count":9100,"type":"VEC3","name":"accessorNormals"},{"bufferView":3,"byteOffset":434672,"componentType":5126,"count":9100,"type":"VEC2","name":"accessorUVs"}],"bufferViews":[{"buffer":0,"byteLength":721512,"name":"bufferViewScalar"},{"buffer":0,"byteOffset":721512,"byteLength":1522416,"byteStride":12,"name":"bufferViewFloatVec3"},{"buffer":0,"byteOffset":2243928,"byteLength":1014944,"byteStride":16,"name":"bufferViewFloatVec4"},{"buffer":0,"byteOffset":3258872,"byteLength":507472,"byteStride":8,"name":"bufferViewFloatVec2"}],"buffers":[{"uri":"Jian07.bin","byteLength":3766344}],"materials":[{"pbrMetallicRoughness":{"baseColorFactor":[1.0,0.751547635,0.345000029,1.0],"metallicFactor":0.0,"roughnessFactor":0.450053632},"name":"lambert5"},{"pbrMetallicRoughness":{"baseColorFactor":[0.0308219176,0.0308219176,0.0308219176,1.0],"metallicFactor":0.0,"roughnessFactor":0.450053632},"name":"lambert6"},{"pbrMetallicRoughness":{"baseColorFactor":[0.08791209,0.08791209,0.08791209,1.0],"metallicFactor":0.0,"roughnessFactor":0.450053632},"name":"lambert4"},{"pbrMetallicRoughness":{"baseColorTexture":{"index":0},"metallicFactor":0.0,"roughnessFactor":0.450053632},"name":"lambert2"},{"pbrMetallicRoughness":{"baseColorTexture":{"index":1},"metallicFactor":0.0,"roughnessFactor":0.450053632},"name":"lambert3"}],"textures":[{"sampler":0,"source":0,"name":"a03.jpg"},{"sampler":0,"source":1,"name":"b.png"}],"images":[{"uri":"a03.jpg"},{"uri":"b.png"}],"samplers":[{"magFilter":9729,"minFilter":9987}]}