{"asset":{"version":"2.0","generator":"babylon.js glTF exporter for Autodesk Maya 2018.5 v20220319.2"},"scene":0,"scenes":[{"nodes":[0]}],"nodes":[{"children":[1,2,3,4,5,6,7],"name":"group1"},{"mesh":0,"translation":[-0.000192149208,0.0337188654,0.0],"rotation":[-1.0,0.0,0.0,6.123234E-17],"scale":[1.0,1.0,-1.0],"name":"pPlane11"},{"mesh":1,"translation":[0.0161669329,0.00348624843,0.0],"rotation":[0.0,0.0,0.399864,0.9165745],"name":"pPlane7"},{"mesh":2,"translation":[-0.000320248684,-0.00076859683,0.0],"name":"pPlane8"},{"mesh":3,"translation":[0.0,0.0360246561,0.0],"rotation":[-1.0,0.0,0.0,6.123234E-17],"scale":[1.0,1.0,-1.0],"name":"pPlane10"},{"mesh":4,"translation":[-0.00076859683,0.03551226,0.0],"rotation":[-1.0,0.0,0.0,6.123234E-17],"scale":[1.0,1.0,-1.0],"name":"pPlane9"},{"mesh":5,"name":"pCube1"},{"mesh":6,"translation":[-0.0146831376,0.004215707,0.0],"rotation":[0.0,0.0,-0.376632929,0.9263626],"name":"pPlane6"}],"meshes":[{"primitives":[{"attributes":{"POSITION":1,"TANGENT":2,"NORMAL":3,"TEXCOORD_0":4},"indices":0,"material":0},{"attributes":{"POSITION":6,"TANGENT":7,"NORMAL":8,"TEXCOORD_0":9},"indices":5,"material":1},{"attributes":{"POSITION":11,"TANGENT":12,"NORMAL":13,"TEXCOORD_0":14},"indices":10,"material":2}],"name":"pPlane11"},{"primitives":[{"attributes":{"POSITION":16,"TANGENT":17,"NORMAL":18,"TEXCOORD_0":19},"indices":15,"material":0},{"attributes":{"POSITION":21,"TANGENT":22,"NORMAL":23,"TEXCOORD_0":24},"indices":20,"material":1},{"attributes":{"POSITION":26,"TANGENT":27,"NORMAL":28,"TEXCOORD_0":29},"indices":25,"material":2}],"name":"pPlane7"},{"primitives":[{"attributes":{"POSITION":31,"TANGENT":32,"NORMAL":33,"TEXCOORD_0":34},"indices":30,"material":0},{"attributes":{"POSITION":36,"TANGENT":37,"NORMAL":38,"TEXCOORD_0":39},"indices":35,"material":1},{"attributes":{"POSITION":41,"TANGENT":42,"NORMAL":43,"TEXCOORD_0":44},"indices":40,"material":2}],"name":"pPlane8"},{"primitives":[{"attributes":{"POSITION":46,"TANGENT":47,"NORMAL":48,"TEXCOORD_0":49},"indices":45,"material":0},{"attributes":{"POSITION":51,"TANGENT":52,"NORMAL":53,"TEXCOORD_0":54},"indices":50,"material":1},{"attributes":{"POSITION":56,"TANGENT":57,"NORMAL":58,"TEXCOORD_0":59},"indices":55,"material":2}],"name":"pPlane10"},{"primitives":[{"attributes":{"POSITION":61,"TANGENT":62,"NORMAL":63,"TEXCOORD_0":64},"indices":60,"material":0},{"attributes":{"POSITION":66,"TANGENT":67,"NORMAL":68,"TEXCOORD_0":69},"indices":65,"material":1},{"attributes":{"POSITION":71,"TANGENT":72,"NORMAL":73,"TEXCOORD_0":74},"indices":70,"material":2}],"name":"pPlane9"},{"primitives":[{"attributes":{"POSITION":76,"TANGENT":77,"NORMAL":78,"TEXCOORD_0":79},"indices":75,"material":3},{"attributes":{"POSITION":81,"TANGENT":82,"NORMAL":83,"TEXCOORD_0":84},"indices":80,"material":4},{"attributes":{"POSITION":86,"TANGENT":87,"NORMAL":88,"TEXCOORD_0":89},"indices":85,"material":5}],"name":"pCube1"},{"primitives":[{"attributes":{"POSITION":91,"TANGENT":92,"NORMAL":93,"TEXCOORD_0":94},"indices":90,"material":0},{"attributes":{"POSITION":96,"TANGENT":97,"NORMAL":98,"TEXCOORD_0":99},"indices":95,"material":1},{"attributes":{"POSITION":101,"TANGENT":102,"NORMAL":103,"TEXCOORD_0":104},"indices":100,"material":2}],"name":"pPlane6"}],"accessors":[{"bufferView":0,"componentType":5123,"count":25392,"type":"SCALAR","name":"accessorIndices"},{"bufferView":1,"componentType":5126,"count":4576,"max":[-0.008892286,0.008239934,0.0007962093],"min":[-0.0186942983,-0.0021367562,-0.0007962095],"type":"VEC3","name":"accessorPositions"},{"bufferView":2,"componentType":5126,"count":4576,"type":"VEC4","name":"accessorTangents"},{"bufferView":1,"byteOffset":54912,"componentType":5126,"count":4576,"type":"VEC3","name":"accessorNormals"},{"bufferView":3,"componentType":5126,"count":4576,"type":"VEC2","name":"accessorUVs"},{"bufferView":0,"byteOffset":50784,"componentType":5123,"count":3456,"type":"SCALAR","name":"accessorIndices"},{"bufferView":1,"byteOffset":109824,"componentType":5126,"count":578,"max":[-0.000838569656,0.0162573382,6.978293E-05],"min":[-0.0138925407,0.00288473954,-0.000315311627],"type":"VEC3","name":"accessorPositions"},{"bufferView":2,"byteOffset":73216,"componentType":5126,"count":578,"type":"VEC4","name":"accessorTangents"},{"bufferView":1,"byteOffset":116760,"componentType":5126,"count":578,"type":"VEC3","name":"accessorNormals"},{"bufferView":3,"byteOffset":36608,"componentType":5126,"count":578,"type":"VEC2","name":"accessorUVs"},{"bufferView":0,"byteOffset":57696,"componentType":5123,"count":8880,"type":"SCALAR","name":"accessorIndices"},{"bufferView":1,"byteOffset":123696,"componentType":5126,"count":1729,"max":[-0.0131565928,0.00353632239,0.000448785577],"min":[-0.0161808264,0.0004655659,-0.0004487854],"type":"VEC3","name":"accessorPositions"},{"bufferView":2,"byteOffset":82464,"componentType":5126,"count":1729,"type":"VEC4","name":"accessorTangents"},{"bufferView":1,"byteOffset":144444,"componentType":5126,"count":1729,"type":"VEC3","name":"accessorNormals"},{"bufferView":3,"byteOffset":41232,"componentType":5126,"count":1729,"type":"VEC2","name":"accessorUVs"},{"bufferView":0,"byteOffset":75456,"componentType":5123,"count":25392,"type":"SCALAR","name":"accessorIndices"},{"bufferView":1,"byteOffset":165192,"componentType":5126,"count":4576,"max":[0.004612898,0.00674765138,0.0007962093],"min":[-0.001540391,-0.00732687954,-0.0007962095],"type":"VEC3","name":"accessorPositions"},{"bufferView":2,"byteOffset":110128,"componentType":5126,"count":4576,"type":"VEC4","name":"accessorTangents"},{"bufferView":1,"byteOffset":220104,"componentType":5126,"count":4576,"type":"VEC3","name":"accessorNormals"},{"bufferView":3,"byteOffset":55064,"componentType":5126,"count":4576,"type":"VEC2","name":"accessorUVs"},{"bufferView":0,"byteOffset":126240,"componentType":5123,"count":3456,"type":"SCALAR","name":"accessorIndices"},{"bufferView":1,"byteOffset":275016,"componentType":5126,"count":578,"max":[0.0022394124,0.01828267,6.978293E-05],"min":[0.0007886312,0.0003104335,-0.000315311627],"type":"VEC3","name":"accessorPositions"},{"bufferView":2,"byteOffset":183344,"componentType":5126,"count":578,"type":"VEC4","name":"accessorTangents"},{"bufferView":1,"byteOffset":281952,"componentType":5126,"count":578,"type":"VEC3","name":"accessorNormals"},{"bufferView":3,"byteOffset":91672,"componentType":5126,"count":578,"type":"VEC2","name":"accessorUVs"},{"bufferView":0,"byteOffset":133152,"componentType":5123,"count":8880,"type":"SCALAR","name":"accessorIndices"},{"bufferView":1,"byteOffset":288888,"componentType":5126,"count":1729,"max":[0.00200457661,0.000139457727,0.000448785577],"min":[0.00110700587,-0.00329216919,-0.0004487854],"type":"VEC3","name":"accessorPositions"},{"bufferView":2,"byteOffset":192592,"componentType":5126,"count":1729,"type":"VEC4","name":"accessorTangents"},{"bufferView":1,"byteOffset":309636,"componentType":5126,"count":1729,"type":"VEC3","name":"accessorNormals"},{"bufferView":3,"byteOffset":96296,"componentType":5126,"count":1729,"type":"VEC2","name":"accessorUVs"},{"bufferView":0,"byteOffset":150912,"componentType":5123,"count":25392,"type":"SCALAR","name":"accessorIndices"},{"bufferView":1,"byteOffset":330384,"componentType":5126,"count":4576,"max":[0.004612898,0.00674765138,0.0007962093],"min":[-0.001540391,-0.00732687954,-0.0007962095],"type":"VEC3","name":"accessorPositions"},{"bufferView":2,"byteOffset":220256,"componentType":5126,"count":4576,"type":"VEC4","name":"accessorTangents"},{"bufferView":1,"byteOffset":385296,"componentType":5126,"count":4576,"type":"VEC3","name":"accessorNormals"},{"bufferView":3,"byteOffset":110128,"componentType":5126,"count":4576,"type":"VEC2","name":"accessorUVs"},{"bufferView":0,"byteOffset":201696,"componentType":5123,"count":3456,"type":"SCALAR","name":"accessorIndices"},{"bufferView":1,"byteOffset":440208,"componentType":5126,"count":578,"max":[0.0022394124,0.01828267,6.978293E-05],"min":[0.0007886312,0.0003104335,-0.000315311627],"type":"VEC3","name":"accessorPositions"},{"bufferView":2,"byteOffset":293472,"componentType":5126,"count":578,"type":"VEC4","name":"accessorTangents"},{"bufferView":1,"byteOffset":447144,"componentType":5126,"count":578,"type":"VEC3","name":"accessorNormals"},{"bufferView":3,"byteOffset":146736,"componentType":5126,"count":578,"type":"VEC2","name":"accessorUVs"},{"bufferView":0,"byteOffset":208608,"componentType":5123,"count":8880,"type":"SCALAR","name":"accessorIndices"},{"bufferView":1,"byteOffset":454080,"componentType":5126,"count":1729,"max":[0.00200457661,0.000139457727,0.000448785577],"min":[0.00110700587,-0.00329216919,-0.0004487854],"type":"VEC3","name":"accessorPositions"},{"bufferView":2,"byteOffset":302720,"componentType":5126,"count":1729,"type":"VEC4","name":"accessorTangents"},{"bufferView":1,"byteOffset":474828,"componentType":5126,"count":1729,"type":"VEC3","name":"accessorNormals"},{"bufferView":3,"byteOffset":151360,"componentType":5126,"count":1729,"type":"VEC2","name":"accessorUVs"},{"bufferView":0,"byteOffset":226368,"componentType":5123,"count":25392,"type":"SCALAR","name":"accessorIndices"},{"bufferView":1,"byteOffset":495576,"componentType":5126,"count":4576,"max":[0.00429264968,0.005979055,0.0007962093],"min":[-0.00186063966,-0.008095477,-0.0007962095],"type":"VEC3","name":"accessorPositions"},{"bufferView":2,"byteOffset":330384,"componentType":5126,"count":4576,"type":"VEC4","name":"accessorTangents"},{"bufferView":1,"byteOffset":550488,"componentType":5126,"count":4576,"type":"VEC3","name":"accessorNormals"},{"bufferView":3,"byteOffset":165192,"componentType":5126,"count":4576,"type":"VEC2","name":"accessorUVs"},{"bufferView":0,"byteOffset":277152,"componentType":5123,"count":3456,"type":"SCALAR","name":"accessorIndices"},{"bufferView":1,"byteOffset":605400,"componentType":5126,"count":578,"max":[0.00191916374,0.0175140742,6.978293E-05],"min":[0.000468382525,-0.0004581633,-0.000315311627],"type":"VEC3","name":"accessorPositions"},{"bufferView":2,"byteOffset":403600,"componentType":5126,"count":578,"type":"VEC4","name":"accessorTangents"},{"bufferView":1,"byteOffset":612336,"componentType":5126,"count":578,"type":"VEC3","name":"accessorNormals"},{"bufferView":3,"byteOffset":201800,"componentType":5126,"count":578,"type":"VEC2","name":"accessorUVs"},{"bufferView":0,"byteOffset":284064,"componentType":5123,"count":8880,"type":"SCALAR","name":"accessorIndices"},{"bufferView":1,"byteOffset":619272,"componentType":5126,"count":1729,"max":[0.001684328,-0.0006291391,0.000448785577],"min":[0.000786757155,-0.004060766,-0.0004487854],"type":"VEC3","name":"accessorPositions"},{"bufferView":2,"byteOffset":412848,"componentType":5126,"count":1729,"type":"VEC4","name":"accessorTangents"},{"bufferView":1,"byteOffset":640020,"componentType":5126,"count":1729,"type":"VEC3","name":"accessorNormals"},{"bufferView":3,"byteOffset":206424,"componentType":5126,"count":1729,"type":"VEC2","name":"accessorUVs"},{"bufferView":0,"byteOffset":301824,"componentType":5123,"count":25392,"type":"SCALAR","name":"accessorIndices"},{"bufferView":1,"byteOffset":660768,"componentType":5126,"count":4576,"max":[0.0226138234,0.00918373652,0.0007962093],"min":[0.0120430971,-0.0003720188,-0.0007962095],"type":"VEC3","name":"accessorPositions"},{"bufferView":2,"byteOffset":440512,"componentType":5126,"count":4576,"type":"VEC4","name":"accessorTangents"},{"bufferView":1,"byteOffset":715680,"componentType":5126,"count":4576,"type":"VEC3","name":"accessorNormals"},{"bufferView":3,"byteOffset":220256,"componentType":5126,"count":4576,"type":"VEC2","name":"accessorUVs"},{"bufferView":0,"byteOffset":352608,"componentType":5123,"count":3456,"type":"SCALAR","name":"accessorIndices"},{"bufferView":1,"byteOffset":770592,"componentType":5126,"count":578,"max":[0.0174532831,0.0170348417,6.978293E-05],"min":[0.00379321561,0.004284455,-0.000315311627],"type":"VEC3","name":"accessorPositions"},{"bufferView":2,"byteOffset":513728,"componentType":5126,"count":578,"type":"VEC4","name":"accessorTangents"},{"bufferView":1,"byteOffset":777528,"componentType":5126,"count":578,"type":"VEC3","name":"accessorNormals"},{"bufferView":3,"byteOffset":256864,"componentType":5126,"count":578,"type":"VEC2","name":"accessorUVs"},{"bufferView":0,"byteOffset":359520,"componentType":5123,"count":8880,"type":"SCALAR","name":"accessorIndices"},{"bufferView":1,"byteOffset":784464,"componentType":5126,"count":1729,"max":[0.0199367888,0.005044016,0.000448785577],"min":[0.0168246,0.00206477288,-0.0004487854],"type":"VEC3","name":"accessorPositions"},{"bufferView":2,"byteOffset":522976,"componentType":5126,"count":1729,"type":"VEC4","name":"accessorTangents"},{"bufferView":1,"byteOffset":805212,"componentType":5126,"count":1729,"type":"VEC3","name":"accessorNormals"},{"bufferView":3,"byteOffset":261488,"componentType":5126,"count":1729,"type":"VEC2","name":"accessorUVs"},{"bufferView":0,"byteOffset":377280,"componentType":5123,"count":24,"type":"SCALAR","name":"accessorIndices"},{"bufferView":1,"byteOffset":825960,"componentType":5126,"count":16,"max":[0.02861758,0.04942452,-0.000912670163],"min":[-0.02865185,-0.0494930334,-0.00300111528],"type":"VEC3","name":"accessorPositions"},{"bufferView":2,"byteOffset":550640,"componentType":5126,"count":16,"type":"VEC4","name":"accessorTangents"},{"bufferView":1,"byteOffset":826152,"componentType":5126,"count":16,"type":"VEC3","name":"accessorNormals"},{"bufferView":3,"byteOffset":275320,"componentType":5126,"count":16,"type":"VEC2","name":"accessorUVs"},{"bufferView":0,"byteOffset":377328,"componentType":5123,"count":6,"type":"SCALAR","name":"accessorIndices"},{"bufferView":1,"byteOffset":826344,"componentType":5126,"count":4,"max":[0.02861758,0.04942452,-0.000912670163],"min":[-0.02865185,-0.0494930334,-0.000912670163],"type":"VEC3","name":"accessorPositions"},{"bufferView":2,"byteOffset":550896,"componentType":5126,"count":4,"type":"VEC4","name":"accessorTangents"},{"bufferView":1,"byteOffset":826392,"componentType":5126,"count":4,"type":"VEC3","name":"accessorNormals"},{"bufferView":3,"byteOffset":275448,"componentType":5126,"count":4,"type":"VEC2","name":"accessorUVs"},{"bufferView":0,"byteOffset":377340,"componentType":5123,"count":6,"type":"SCALAR","name":"accessorIndices"},{"bufferView":1,"byteOffset":826440,"componentType":5126,"count":4,"max":[0.02861758,0.04942452,-0.00300111528],"min":[-0.02865185,-0.0494930334,-0.00300111528],"type":"VEC3","name":"accessorPositions"},{"bufferView":2,"byteOffset":550960,"componentType":5126,"count":4,"type":"VEC4","name":"accessorTangents"},{"bufferView":1,"byteOffset":826488,"componentType":5126,"count":4,"type":"VEC3","name":"accessorNormals"},{"bufferView":3,"byteOffset":275480,"componentType":5126,"count":4,"type":"VEC2","name":"accessorUVs"},{"bufferView":0,"byteOffset":377352,"componentType":5123,"count":25392,"type":"SCALAR","name":"accessorIndices"},{"bufferView":1,"byteOffset":826536,"componentType":5126,"count":4576,"max":[0.004612898,0.00674765138,0.0007962093],"min":[-0.001540391,-0.00732687954,-0.0007962095],"type":"VEC3","name":"accessorPositions"},{"bufferView":2,"byteOffset":551024,"componentType":5126,"count":4576,"type":"VEC4","name":"accessorTangents"},{"bufferView":1,"byteOffset":881448,"componentType":5126,"count":4576,"type":"VEC3","name":"accessorNormals"},{"bufferView":3,"byteOffset":275512,"componentType":5126,"count":4576,"type":"VEC2","name":"accessorUVs"},{"bufferView":0,"byteOffset":428136,"componentType":5123,"count":3456,"type":"SCALAR","name":"accessorIndices"},{"bufferView":1,"byteOffset":936360,"componentType":5126,"count":578,"max":[0.0022394124,0.01828267,6.978293E-05],"min":[0.0007886312,0.0003104335,-0.000315311627],"type":"VEC3","name":"accessorPositions"},{"bufferView":2,"byteOffset":624240,"componentType":5126,"count":578,"type":"VEC4","name":"accessorTangents"},{"bufferView":1,"byteOffset":943296,"componentType":5126,"count":578,"type":"VEC3","name":"accessorNormals"},{"bufferView":3,"byteOffset":312120,"componentType":5126,"count":578,"type":"VEC2","name":"accessorUVs"},{"bufferView":0,"byteOffset":435048,"componentType":5123,"count":8880,"type":"SCALAR","name":"accessorIndices"},{"bufferView":1,"byteOffset":950232,"componentType":5126,"count":1729,"max":[0.00200457661,0.000139457727,0.000448785577],"min":[0.00110700587,-0.00329216919,-0.0004487854],"type":"VEC3","name":"accessorPositions"},{"bufferView":2,"byteOffset":633488,"componentType":5126,"count":1729,"type":"VEC4","name":"accessorTangents"},{"bufferView":1,"byteOffset":970980,"componentType":5126,"count":1729,"type":"VEC3","name":"accessorNormals"},{"bufferView":3,"byteOffset":316744,"componentType":5126,"count":1729,"type":"VEC2","name":"accessorUVs"}],"bufferViews":[{"buffer":0,"byteLength":452808,"name":"bufferViewScalar"},{"buffer":0,"byteOffset":452808,"byteLength":991728,"byteStride":12,"name":"bufferViewFloatVec3"},{"buffer":0,"byteOffset":1444536,"byteLength":661152,"byteStride":16,"name":"bufferViewFloatVec4"},{"buffer":0,"byteOffset":2105688,"byteLength":330576,"byteStride":8,"name":"bufferViewFloatVec2"}],"buffers":[{"uri":"Jian06.bin","byteLength":2436264}],"materials":[{"pbrMetallicRoughness":{"baseColorFactor":[1.0,0.6206834,0.0,1.0],"metallicFactor":0.0,"roughnessFactor":0.450053632},"name":"lambert5"},{"pbrMetallicRoughness":{"baseColorFactor":[0.9589041,0.9589041,0.9589041,1.0],"metallicFactor":0.0,"roughnessFactor":0.450053632},"name":"lambert6"},{"pbrMetallicRoughness":{"baseColorFactor":[0.09931507,0.09931507,0.09931507,1.0],"metallicFactor":0.0,"roughnessFactor":0.450053632},"name":"lambert7"},{"pbrMetallicRoughness":{"baseColorFactor":[0.08791209,0.08791209,0.08791209,1.0],"metallicFactor":0.0,"roughnessFactor":0.450053632},"name":"lambert4"},{"pbrMetallicRoughness":{"baseColorTexture":{"index":0},"metallicFactor":0.0,"roughnessFactor":0.450053632},"name":"lambert2"},{"pbrMetallicRoughness":{"baseColorTexture":{"index":1},"metallicFactor":0.0,"roughnessFactor":0.450053632},"name":"lambert3"}],"textures":[{"sampler":0,"source":0,"name":"a01.jpg"},{"sampler":0,"source":1,"name":"b.png"}],"images":[{"uri":"a01.jpg"},{"uri":"b.png"}],"samplers":[{"magFilter":9729,"minFilter":9987}]}