{"asset":{"version":"2.0","generator":"babylon.js glTF exporter for Autodesk Maya 2018.5 v20220319.2"},"scene":0,"scenes":[{"nodes":[0]}],"nodes":[{"children":[1,2,3],"name":"group1"},{"mesh":0,"translation":[-0.00109580811,-0.00272689434,0.0],"rotation":[0.0,0.0,0.252912074,0.967489243],"name":"pPlane19"},{"mesh":1,"translation":[-0.000472437066,-0.0009671512,0.0],"rotation":[0.0,0.0,-0.2558558,0.966715],"name":"pPlane18"},{"mesh":2,"translation":[-1.71347747E-05,-3.425683E-05,-0.00195689267],"rotation":[0.707106769,0.0,0.0,0.707106769],"scale":[0.877777755,0.4381097,0.703517139],"name":"pCube1"}],"meshes":[{"primitives":[{"attributes":{"POSITION":1,"TANGENT":2,"NORMAL":3,"TEXCOORD_0":4},"indices":0,"material":0},{"attributes":{"POSITION":6,"TANGENT":7,"NORMAL":8,"TEXCOORD_0":9},"indices":5,"material":1}],"name":"pPlane19"},{"primitives":[{"attributes":{"POSITION":11,"TANGENT":12,"NORMAL":13,"TEXCOORD_0":14},"indices":10,"material":0},{"attributes":{"POSITION":16,"TANGENT":17,"NORMAL":18,"TEXCOORD_0":19},"indices":15,"material":1}],"name":"pPlane18"},{"primitives":[{"attributes":{"POSITION":21,"TANGENT":22,"NORMAL":23,"TEXCOORD_0":24},"indices":20,"material":2},{"attributes":{"POSITION":26,"TANGENT":27,"NORMAL":28,"TEXCOORD_0":29},"indices":25,"material":3},{"attributes":{"POSITION":31,"TANGENT":32,"NORMAL":33,"TEXCOORD_0":34},"indices":30,"material":4}],"name":"pCube1"}],"accessors":[{"bufferView":0,"componentType":5123,"count":2436,"type":"SCALAR","name":"accessorIndices"},{"bufferView":1,"componentType":5126,"count":597,"max":[0.0119547546,-0.009985805,0.0007116962],"min":[-0.009478852,-0.0431140661,-0.00243935129],"type":"VEC3","name":"accessorPositions"},{"bufferView":2,"componentType":5126,"count":597,"type":"VEC4","name":"accessorTangents"},{"bufferView":1,"byteOffset":7164,"componentType":5126,"count":597,"type":"VEC3","name":"accessorNormals"},{"bufferView":3,"componentType":5126,"count":597,"type":"VEC2","name":"accessorUVs"},{"bufferView":0,"byteOffset":4872,"componentType":5123,"count":264,"type":"SCALAR","name":"accessorIndices"},{"bufferView":1,"byteOffset":14328,"componentType":5126,"count":92,"max":[0.00275863078,0.045679424,0.0007116962],"min":[-0.0002981753,-0.009985805,-0.00148892729],"type":"VEC3","name":"accessorPositions"},{"bufferView":2,"byteOffset":9552,"componentType":5126,"count":92,"type":"VEC4","name":"accessorTangents"},{"bufferView":1,"byteOffset":15432,"componentType":5126,"count":92,"type":"VEC3","name":"accessorNormals"},{"bufferView":3,"byteOffset":4776,"componentType":5126,"count":92,"type":"VEC2","name":"accessorUVs"},{"bufferView":0,"byteOffset":5400,"componentType":5123,"count":2436,"type":"SCALAR","name":"accessorIndices"},{"bufferView":1,"byteOffset":16536,"componentType":5126,"count":597,"max":[0.0119547546,-0.009985805,0.0007116962],"min":[-0.009478852,-0.0431140661,-0.00243935129],"type":"VEC3","name":"accessorPositions"},{"bufferView":2,"byteOffset":11024,"componentType":5126,"count":597,"type":"VEC4","name":"accessorTangents"},{"bufferView":1,"byteOffset":23700,"componentType":5126,"count":597,"type":"VEC3","name":"accessorNormals"},{"bufferView":3,"byteOffset":5512,"componentType":5126,"count":597,"type":"VEC2","name":"accessorUVs"},{"bufferView":0,"byteOffset":10272,"componentType":5123,"count":264,"type":"SCALAR","name":"accessorIndices"},{"bufferView":1,"byteOffset":30864,"componentType":5126,"count":92,"max":[0.00275863078,0.045679424,0.0007116962],"min":[-0.0002981753,-0.009985805,-0.00148892729],"type":"VEC3","name":"accessorPositions"},{"bufferView":2,"byteOffset":20576,"componentType":5126,"count":92,"type":"VEC4","name":"accessorTangents"},{"bufferView":1,"byteOffset":31968,"componentType":5126,"count":92,"type":"VEC3","name":"accessorNormals"},{"bufferView":3,"byteOffset":10288,"componentType":5126,"count":92,"type":"VEC2","name":"accessorUVs"},{"bufferView":0,"byteOffset":10800,"componentType":5123,"count":24,"type":"SCALAR","name":"accessorIndices"},{"bufferView":1,"byteOffset":33072,"componentType":5126,"count":16,"max":[0.032621827,0.00238347286,0.070302166],"min":[-0.032621827,-0.00238347286,-0.070302166],"type":"VEC3","name":"accessorPositions"},{"bufferView":2,"byteOffset":22048,"componentType":5126,"count":16,"type":"VEC4","name":"accessorTangents"},{"bufferView":1,"byteOffset":33264,"componentType":5126,"count":16,"type":"VEC3","name":"accessorNormals"},{"bufferView":3,"byteOffset":11024,"componentType":5126,"count":16,"type":"VEC2","name":"accessorUVs"},{"bufferView":0,"byteOffset":10848,"componentType":5123,"count":6,"type":"SCALAR","name":"accessorIndices"},{"bufferView":1,"byteOffset":33456,"componentType":5126,"count":4,"max":[0.032621827,0.00238347286,0.070302166],"min":[-0.032621827,0.00238347286,-0.070302166],"type":"VEC3","name":"accessorPositions"},{"bufferView":2,"byteOffset":22304,"componentType":5126,"count":4,"type":"VEC4","name":"accessorTangents"},{"bufferView":1,"byteOffset":33504,"componentType":5126,"count":4,"type":"VEC3","name":"accessorNormals"},{"bufferView":3,"byteOffset":11152,"componentType":5126,"count":4,"type":"VEC2","name":"accessorUVs"},{"bufferView":0,"byteOffset":10860,"componentType":5123,"count":6,"type":"SCALAR","name":"accessorIndices"},{"bufferView":1,"byteOffset":33552,"componentType":5126,"count":4,"max":[0.032621827,-0.00238347286,0.070302166],"min":[-0.032621827,-0.00238347286,-0.070302166],"type":"VEC3","name":"accessorPositions"},{"bufferView":2,"byteOffset":22368,"componentType":5126,"count":4,"type":"VEC4","name":"accessorTangents"},{"bufferView":1,"byteOffset":33600,"componentType":5126,"count":4,"type":"VEC3","name":"accessorNormals"},{"bufferView":3,"byteOffset":11184,"componentType":5126,"count":4,"type":"VEC2","name":"accessorUVs"}],"bufferViews":[{"buffer":0,"byteLength":10872,"name":"bufferViewScalar"},{"buffer":0,"byteOffset":10872,"byteLength":33648,"byteStride":12,"name":"bufferViewFloatVec3"},{"buffer":0,"byteOffset":44520,"byteLength":22432,"byteStride":16,"name":"bufferViewFloatVec4"},{"buffer":0,"byteOffset":66952,"byteLength":11216,"byteStride":8,"name":"bufferViewFloatVec2"}],"buffers":[{"uri":"Jian02.babylon.glb.bin","byteLength":78168}],"materials":[{"pbrMetallicRoughness":{"baseColorFactor":[1.0,0.6206834,0.0,1.0],"metallicFactor":0.0,"roughnessFactor":0.450053632},"name":"lambert7"},{"pbrMetallicRoughness":{"baseColorFactor":[0.94520545,0.94520545,0.94520545,1.0],"metallicFactor":0.0,"roughnessFactor":0.450053632},"name":"lambert8"},{"pbrMetallicRoughness":{"baseColorFactor":[0.08791209,0.08791209,0.08791209,1.0],"metallicFactor":0.0,"roughnessFactor":0.450053632},"name":"lambert4"},{"pbrMetallicRoughness":{"baseColorTexture":{"index":0},"metallicFactor":0.0,"roughnessFactor":0.450053632},"name":"lambert2"},{"pbrMetallicRoughness":{"baseColorTexture":{"index":1},"metallicFactor":0.0,"roughnessFactor":0.450053632},"name":"lambert3"}],"textures":[{"sampler":0,"source":0,"name":"a04.jpg"},{"sampler":0,"source":1,"name":"b.png"}],"images":[{"uri":"a04.jpg"},{"uri":"b.png"}],"samplers":[{"magFilter":9729,"minFilter":9987}]}